<svg width="22" height="20" viewBox="0 0 22 20" fill="none" xmlns="http://www.w3.org/2000/svg">
<path fill-rule="evenodd" clip-rule="evenodd" d="M7.51812 -6.10358e-05C7.50537 -0.00030578 7.49264 -0.000304571 7.47996 -6.10358e-05H5.55221C4.31497 -6.10358e-05 3.20463 0.759484 2.75619 1.9126L0.96825 6.51017C0.533862 7.62716 1.01111 8.85217 2 9.41207V16.9999C2 18.6568 3.34315 19.9999 5 19.9999H17C18.6569 19.9999 20 18.6568 20 16.9999V9.41208C20.9889 8.85218 21.4662 7.62717 21.0318 6.51017L19.2438 1.9126C18.7954 0.759486 17.685 -6.10358e-05 16.4478 -6.10358e-05H14.5201C14.5074 -0.000304571 14.4947 -0.00030578 14.4819 -6.10358e-05H7.51812ZM18 9.73837C17.5515 9.68583 17.1119 9.55587 16.7016 9.35072L16.0005 9.00017L15.9994 9.00017L15.357 9.25716C14.1649 9.73398 12.8351 9.73398 11.6431 9.25716L11 8.99994L10.357 9.25716C9.1649 9.73398 7.83511 9.73398 6.64305 9.25716L6.00058 9.00017L5.99955 9.00017L5.29844 9.35072C4.88814 9.55587 4.44854 9.68583 4 9.73837V16.9999C4 17.5522 4.44772 17.9999 5 17.9999H7V14.9999C7 13.3431 8.34315 11.9999 10 11.9999H12C13.6569 11.9999 15 13.3431 15 14.9999V17.9999H17C17.5523 17.9999 18 17.5522 18 16.9999V9.73837ZM16.8944 7.21108C16.8793 7.20354 16.8642 7.1962 16.849 7.18906L15.737 1.99994H16.4478C16.8602 1.99994 17.2303 2.25312 17.3798 2.63749L19.1678 7.23506C19.2451 7.43404 19.1304 7.65579 18.9233 7.70757C18.4776 7.81898 18.0069 7.7673 17.596 7.56187L16.8944 7.21108ZM14.8303 7.31376L13.6916 1.99994H12V7.24587L12.3858 7.4002C13.1011 7.6863 13.8989 7.6863 14.6142 7.4002L14.8303 7.31376ZM10 1.99994H8.30844L7.16976 7.31378L7.38583 7.4002C8.10107 7.6863 8.89894 7.6863 9.61418 7.4002L10 7.24588V1.99994ZM5.15109 7.18904L6.26304 1.99994H5.55221C5.13979 1.99994 4.76968 2.25312 4.6202 2.63749L2.83226 7.23506C2.75488 7.43404 2.8696 7.65579 3.07673 7.70757C3.52237 7.81898 3.99315 7.7673 4.40401 7.56187L5.10558 7.21108C5.12068 7.20354 5.13585 7.19619 5.15109 7.18904ZM13 14.9999V17.9999H9V14.9999C9 14.4477 9.44772 13.9999 10 13.9999H12C12.5523 13.9999 13 14.4477 13 14.9999Z" fill="#6F767E"/>
</svg>
