<svg width="32" height="22" viewBox="0 0 32 22" fill="none" xmlns="http://www.w3.org/2000/svg">
<path d="M26.1 9.04836C25.7459 8.94703 25.3769 9.15203 25.2757 9.50603C25.1745 9.86003 25.3794 10.2291 25.7333 10.3303C28.7763 11.2006 30.6665 12.4628 30.6665 13.6245C30.6665 14.4746 29.6325 15.4078 27.8297 16.1846C25.8463 17.0393 23.0325 17.6646 19.9037 17.9463L17.1728 17.9093C17.1697 17.9093 17.1666 17.9092 17.1635 17.9092C16.7995 17.9092 16.5021 18.2018 16.4971 18.5669C16.4921 18.935 16.7866 19.2376 17.1547 19.2425L19.9199 19.28C19.923 19.28 19.926 19.28 19.929 19.28C19.9488 19.28 19.9685 19.2792 19.9882 19.2774C23.2679 18.985 26.2401 18.3215 28.3574 17.4092C31.3679 16.1118 31.9999 14.635 31.9999 13.6245C31.9999 11.7616 29.9045 10.1364 26.1 9.04836Z" fill="black"/>
<path d="M6.45866 8.28888C6.09053 8.28888 5.79199 8.58734 5.79199 8.95554C5.79199 9.32374 6.09053 9.62221 6.45866 9.62221H9.20006V12.3777H6.45866C6.09053 12.3777 5.79199 12.6762 5.79199 13.0444C5.79199 13.4126 6.09053 13.7111 6.45866 13.7111H9.86673C10.2349 13.7111 10.5334 13.4126 10.5334 13.0444V4.86668C10.5334 4.49848 10.2349 4.20001 9.86673 4.20001H6.45866C6.09053 4.20001 5.79199 4.49848 5.79199 4.86668C5.79199 5.23488 6.09053 5.53335 6.45866 5.53335H9.20006V8.28888H6.45866Z" fill="black"/>
<path d="M12.592 13.7111H16.6809C17.049 13.7111 17.3476 13.4127 17.3476 13.0445V8.95561C17.3476 8.58741 17.0491 8.28895 16.6809 8.28895H13.2586V5.53335H16C16.3682 5.53335 16.6667 5.23488 16.6667 4.86668C16.6667 4.49848 16.3682 4.20001 16 4.20001H12.592C12.2238 4.20001 11.9253 4.49848 11.9253 4.86668V13.0445C11.9253 13.4127 12.2238 13.7111 12.592 13.7111ZM13.2586 9.62221H16.0142V12.3777H13.2586V9.62221Z" fill="black"/>
<path d="M19.4079 13.7111H23.4968C23.8649 13.7111 24.1635 13.4127 24.1635 13.0445V4.86668C24.1635 4.49848 23.8649 4.20001 23.4968 4.20001H19.4079C19.0397 4.20001 18.7412 4.49848 18.7412 4.86668V13.0445C18.7412 13.4127 19.0397 13.7111 19.4079 13.7111ZM20.0745 5.53335H22.8301V12.3778H20.0745V5.53335Z" fill="black"/>
<path d="M12.1905 15.3691C11.9527 15.0881 11.532 15.0529 11.2509 15.2907C10.9698 15.5285 10.9347 15.9491 11.1725 16.2303L12.6635 17.9929C9.51713 17.753 6.66747 17.1763 4.5722 16.3496C2.51387 15.5373 1.33333 14.5441 1.33333 13.6245C1.33333 12.5566 2.91573 11.4058 5.5662 10.5461C5.91647 10.4325 6.10827 10.0565 5.99467 9.7062C5.88113 9.356 5.505 9.1642 5.15487 9.27773C3.61293 9.77787 2.3902 10.3729 1.52053 11.0461C0.5116 11.8275 0 12.6949 0 13.6245C0 15.1647 1.41187 16.5359 4.0828 17.5898C6.25373 18.4464 9.1646 19.0477 12.3645 19.307L11.0349 20.7806C10.7883 21.0539 10.8099 21.4755 11.0833 21.7221C11.2107 21.8372 11.3705 21.8939 11.5297 21.8939C11.7117 21.8939 11.8932 21.8197 12.0248 21.6738L14.4506 18.9855C14.5611 18.863 14.6223 18.7039 14.6223 18.5389V18.4879C14.6223 18.3303 14.5665 18.1777 14.4647 18.0574L12.1905 15.3691Z" fill="black"/>
<path d="M25.4274 4.16574H28.1527C28.5208 4.16574 28.8193 3.86727 28.8193 3.49907V0.772807C28.8193 0.404607 28.5208 0.10614 28.1527 0.10614H25.4274C25.0593 0.10614 24.7607 0.404607 24.7607 0.772807V3.49907C24.7607 3.86727 25.0593 4.16574 25.4274 4.16574ZM26.0941 1.43947H27.486V2.83241H26.0941V1.43947Z" fill="black"/>
</svg>
